<svg xmlns="http://www.w3.org/2000/svg" width="2135" height="650" viewBox="0 0 2135 650" role="img" aria-label="Dulcinea One"><title>Dulcinea One</title><desc>Outlined vector logo. Deep teal and burnished copper identity.</desc><g transform="translate(75 75)"><g id="doorway-symbol"><path fill="#000000" fill-rule="evenodd" d="M1.205,413.805 C0.282,412.882 -0.000,390.771 -0.000,319.455 C-0.000,231.983 0.107,226.219 1.750,224.812 C3.418,223.384 32.246,205.893 46.000,197.964 C49.575,195.903 58.463,190.611 65.750,186.204 L79.000,178.192 79.000,284.203 C79.000,381.824 79.129,390.164 80.632,389.588 C81.529,389.244 86.366,386.556 91.382,383.615 C96.397,380.675 108.150,373.874 117.500,368.503 C126.850,363.132 146.722,351.596 161.660,342.869 L188.819,327.000 222.660,326.965 C260.222,326.926 267.868,326.137 278.287,321.224 C285.245,317.943 292.754,312.078 296.505,306.993 L299.000,303.611 299.000,224.917 C299.000,151.403 298.885,146.089 297.250,144.208 C296.288,143.100 286.500,136.454 275.500,129.438 C264.500,122.423 251.225,113.879 246.000,110.451 C227.640,98.408 186.786,73.249 183.656,72.059 C181.813,71.359 180.283,71.635 177.361,73.196 C170.826,76.688 122.517,105.254 80.500,130.471 C73.900,134.432 60.625,142.318 51.000,147.995 C41.375,153.673 26.605,162.557 18.179,167.739 C9.680,172.964 2.219,176.914 1.423,176.609 C0.190,176.136 0.025,163.754 0.245,88.279 L0.500,0.500 118.500,0.500 L236.500,0.500 247.500,2.851 C287.170,11.331 326.279,33.678 355.014,64.283 C414.486,127.628 429.110,224.546 390.806,301.500 C359.020,365.361 293.875,409.631 225.291,413.977 C202.060,415.449 2.696,415.296 1.205,413.805 Z"/><path fill="#000000" fill-rule="evenodd" d="M79.000,284.013 L79.000,178.025 82.756,175.654 C87.778,172.484 175.192,121.024 181.317,117.632 C183.966,116.165 186.554,115.224 187.067,115.541 C187.635,115.892 188.000,157.495 188.000,221.828 L188.000,327.538 176.250,334.395 C169.787,338.166 153.250,347.770 139.500,355.737 C125.750,363.704 106.821,374.673 97.436,380.111 C88.051,385.550 80.063,390.000 79.686,390.000 C79.309,390.000 79.000,342.306 79.000,284.013 Z"/></g><path id="dulcinea-wordmark" fill="#000000" fill-rule="evenodd" transform="translate(467 68)" d="M1190.000,306.906 C1155.556,303.566 1121.862,280.733 1106.713,250.466 C1089.400,215.875 1091.672,171.720 1112.382,140.285 C1121.515,126.421 1139.812,111.735 1156.919,104.534 C1185.776,92.388 1224.260,93.113 1251.449,106.315 C1278.932,119.660 1295.559,140.144 1303.698,170.687 C1306.832,182.444 1307.811,215.113 1305.128,218.346 C1303.874,219.857 1297.378,220.000 1229.878,220.000 C1146.713,220.000 1154.356,219.175 1157.847,227.773 C1165.666,247.030 1183.938,257.878 1208.701,257.964 C1226.758,258.027 1238.278,253.854 1250.368,242.868 L1257.237,236.627 1262.368,239.480 C1267.933,242.574 1288.167,255.220 1294.287,259.429 L1298.073,262.033 1295.144,266.267 C1290.674,272.726 1278.351,284.169 1270.158,289.468 C1246.586,304.713 1222.169,310.025 1190.000,306.906 Z M1247.523,174.750 C1246.390,167.372 1241.465,158.646 1235.116,152.768 C1221.891,140.524 1197.326,138.183 1179.119,147.433 C1169.281,152.431 1159.335,165.212 1157.473,175.250 L1156.777,179.000 1202.477,179.000 L1248.176,179.000 1247.523,174.750 Z M354.330,305.519 C317.998,298.926 290.584,274.561 281.740,241.000 C279.529,232.611 279.500,231.642 279.500,167.000 L279.500,101.500 309.500,101.500 L339.500,101.500 340.008,162.500 C340.454,215.973 340.720,224.006 342.160,227.597 C346.818,239.211 350.633,243.663 360.287,248.752 C365.098,251.288 366.388,251.500 377.000,251.500 C390.668,251.500 395.678,249.416 404.066,240.237 C413.513,229.900 413.381,230.955 413.981,161.500 L414.500,101.500 443.379,101.234 C463.851,101.046 472.657,101.300 473.629,102.107 C475.704,103.829 475.614,216.351 473.526,230.199 C467.761,268.447 437.570,298.659 398.266,305.513 C387.848,307.330 364.329,307.333 354.330,305.519 Z M681.000,305.954 C641.558,301.066 606.764,274.862 592.714,239.464 C583.277,215.687 583.662,182.396 593.649,158.637 C600.230,142.982 616.648,123.286 630.468,114.468 C662.428,94.075 705.824,90.065 740.686,104.285 C754.943,110.100 779.000,126.726 779.000,130.764 C779.000,132.305 744.359,166.910 742.755,166.972 C742.345,166.987 739.195,164.730 735.755,161.957 C723.870,152.373 713.531,148.714 698.500,148.768 C666.731,148.882 645.906,171.755 648.448,203.742 C650.867,234.179 669.746,252.280 699.000,252.213 C715.250,252.176 726.268,247.870 737.132,237.310 C739.679,234.834 742.474,232.964 743.343,233.154 C746.358,233.815 780.000,265.982 780.000,268.204 C780.000,271.969 764.043,285.724 751.500,292.771 C731.420,304.053 705.209,308.954 681.000,305.954 Z M1387.721,305.948 C1378.179,304.838 1365.408,300.545 1356.433,295.430 C1345.760,289.348 1342.989,287.053 1336.016,278.520 C1326.036,266.306 1322.000,255.070 1322.000,239.500 C1322.000,214.934 1333.087,198.025 1357.119,185.941 C1378.005,175.438 1413.946,173.077 1446.453,180.073 C1451.377,181.133 1455.817,182.000 1456.318,182.000 C1458.107,182.000 1455.860,170.419 1452.866,164.207 C1449.307,156.824 1443.066,151.350 1434.252,147.881 C1426.324,144.761 1401.102,144.488 1391.000,147.412 C1383.081,149.705 1372.211,154.587 1365.554,158.840 C1362.834,160.578 1360.103,162.000 1359.485,162.000 C1358.448,162.000 1346.345,148.721 1334.573,134.666 C1330.674,130.011 1329.858,128.442 1330.663,127.142 C1334.393,121.115 1355.944,108.286 1371.953,102.561 C1395.984,93.969 1433.767,93.535 1457.793,101.574 C1490.693,112.583 1511.422,136.719 1516.059,169.416 C1517.569,180.061 1517.473,299.725 1515.954,301.556 C1514.350,303.488 1464.116,303.716 1462.200,301.800 C1461.497,301.097 1460.994,297.680 1460.985,293.550 C1460.967,285.357 1460.060,283.014 1457.912,285.615 C1456.176,287.716 1444.968,294.969 1437.997,298.501 C1424.334,305.425 1406.247,308.104 1387.721,305.948 Z M1434.000,257.174 C1445.847,252.573 1455.086,240.525 1456.565,227.747 L1457.231,221.995 1453.586,220.471 C1436.942,213.517 1409.026,212.362 1396.055,218.090 C1376.052,226.925 1377.448,250.748 1398.409,258.233 C1405.721,260.844 1426.110,260.238 1434.000,257.174 Z M6.000,302.076 L0.500,301.500 0.500,158.500 L0.500,15.500 67.500,15.500 C142.868,15.500 142.159,15.445 165.633,23.082 C189.423,30.822 206.877,41.654 223.022,58.698 C240.160,76.792 250.314,96.802 257.171,126.000 C260.538,140.338 260.526,175.632 257.149,191.500 C243.815,254.158 194.655,295.445 125.641,301.947 C114.436,303.002 15.866,303.109 6.000,302.076 Z M132.147,243.200 C174.394,232.774 198.182,196.129 193.947,148.000 C190.486,108.666 166.563,81.121 130.000,74.372 C120.966,72.704 81.582,71.421 70.750,72.441 L63.000,73.171 63.000,158.919 C63.000,206.080 63.337,245.008 63.750,245.425 C64.162,245.842 77.775,245.993 94.000,245.759 C119.828,245.387 124.576,245.068 132.147,243.200 Z M507.004,302.290 C505.081,302.041 502.929,301.356 502.222,300.769 C500.252,299.134 500.893,4.038 502.872,1.653 C504.637,-0.473 562.702,-0.898 564.800,1.200 C566.590,2.990 566.540,300.532 564.750,301.691 C563.432,302.544 512.996,303.067 507.004,302.290 Z M797.431,301.288 C795.483,299.340 795.256,104.144 797.200,102.200 C798.469,100.931 852.228,100.383 855.418,101.607 C857.547,102.424 857.875,300.315 855.750,301.691 C853.318,303.265 799.033,302.890 797.431,301.288 Z M884.500,302.221 C883.400,301.972 882.213,301.313 881.861,300.755 C881.510,300.198 881.151,255.754 881.064,201.990 C880.920,113.113 881.052,104.090 882.524,102.619 C883.936,101.207 887.593,101.000 911.103,101.000 C941.039,101.000 939.197,100.552 939.456,107.900 C939.525,109.880 939.676,113.465 939.791,115.866 L940.000,120.233 943.789,116.810 C968.769,94.242 1007.546,89.427 1038.000,105.111 C1058.483,115.660 1070.472,132.736 1075.133,158.000 C1077.069,168.493 1077.488,297.950 1075.594,300.541 C1074.232,302.404 1072.818,302.500 1046.736,302.500 C1026.202,302.500 1018.929,302.184 1017.796,301.245 C1016.472,300.147 1016.301,292.664 1016.435,241.745 C1016.619,171.801 1016.394,169.594 1007.997,159.146 C1001.830,151.472 996.413,149.500 981.500,149.500 C969.151,149.500 968.201,149.647 962.522,152.431 C954.464,156.381 947.876,163.156 944.893,170.559 L942.500,176.500 942.220,237.954 C941.977,291.474 941.743,299.627 940.409,301.101 C939.042,302.611 936.068,302.787 912.689,302.733 C898.285,302.700 885.600,302.470 884.500,302.221 Z M816.500,75.477 C813.750,74.713 811.207,74.068 810.849,74.044 C808.720,73.900 797.764,64.273 795.678,60.713 C784.339,41.365 791.103,18.596 811.000,9.136 C819.004,5.330 832.996,5.330 841.000,9.136 C871.686,23.726 867.137,67.875 834.147,75.640 C827.123,77.293 822.900,77.254 816.500,75.477 Z"/><rect id="fund-rule" x="467" y="445" width="308" height="20" fill="#000000"/><path id="fund-one" fill="#CFB53B" fill-rule="evenodd" transform="translate(819 412)" d="M31.105,84.480 C0.236,75.821 -10.320,37.466 11.791,14.301 C28.967,-3.693 55.862,-4.768 74.209,11.808 C97.331,32.697 89.974,71.907 60.814,83.202 C53.745,85.940 38.627,86.590 31.105,84.480 Z M54.690,66.564 C63.873,62.288 68.840,52.200 67.739,40.059 C65.349,13.696 30.908,8.726 21.491,33.385 C18.011,42.496 20.762,56.731 27.153,62.688 C34.073,69.138 45.659,70.769 54.690,66.564 Z M127.239,43.250 L127.500,2.500 135.477,2.500 L143.454,2.500 148.477,9.100 C159.483,23.563 180.295,49.000 181.122,49.000 C181.605,49.000 182.000,38.425 182.000,25.500 L182.000,2.000 191.000,2.000 L200.000,2.000 200.129,5.750 C200.644,20.716 200.804,71.778 200.353,77.250 L199.797,84.000 192.019,84.000 L184.240,84.000 179.962,78.250 C169.123,63.682 146.769,36.000 145.844,36.000 C145.380,36.000 145.000,46.800 145.000,60.000 L145.000,84.000 135.989,84.000 L126.978,84.000 127.239,43.250 Z M244.463,82.763 C244.195,82.066 244.094,63.722 244.238,41.998 L244.500,2.500 274.750,2.235 L305.000,1.971 305.000,8.863 C305.000,13.367 304.541,16.136 303.674,16.855 C302.837,17.550 295.189,18.056 282.924,18.228 L263.500,18.500 263.500,26.500 L263.500,34.500 281.500,34.680 L299.500,34.861 299.797,42.092 C300.006,47.175 299.709,49.588 298.797,50.214 C298.084,50.703 289.850,50.968 280.500,50.802 L263.500,50.500 263.210,58.750 L262.919,67.000 275.710,67.006 C282.744,67.009 292.230,67.302 296.789,67.657 L305.079,68.303 304.789,75.901 L304.500,83.500 274.724,83.765 C251.419,83.972 244.843,83.755 244.463,82.763 Z"/></g></svg>